<mxfile host="65bd71144e">
    <diagram id="IhTuI-7QIXEfGadhTLPi" name="Page-1">
        <mxGraphModel dx="1312" dy="1673" grid="1" gridSize="10" guides="1" tooltips="1" connect="1" arrows="1" fold="1" page="1" pageScale="1" pageWidth="850" pageHeight="1100" math="0" shadow="0">
            <root>
                <mxCell id="0"/>
                <mxCell id="1" parent="0"/>
                <mxCell id="2" value="" style="rounded=0;whiteSpace=wrap;html=1;fillColor=none;strokeColor=#99FFFF;" vertex="1" parent="1">
                    <mxGeometry x="465" y="280" width="316" height="160" as="geometry"/>
                </mxCell>
                <mxCell id="3" value="Domain" style="text;html=1;align=center;verticalAlign=middle;resizable=0;points=[];autosize=1;strokeColor=none;fillColor=none;" vertex="1" parent="1">
                    <mxGeometry x="721" y="250" width="60" height="30" as="geometry"/>
                </mxCell>
                <mxCell id="4" value="LoadCharacters" style="rounded=1;whiteSpace=wrap;html=1;dashed=1;fillColor=none;strokeColor=#99FFFF;" vertex="1" parent="1">
                    <mxGeometry x="563" y="330" width="120" height="60" as="geometry"/>
                </mxCell>
                <mxCell id="5" value="" style="rounded=0;whiteSpace=wrap;html=1;fillColor=none;strokeColor=#99FF99;" vertex="1" parent="1">
                    <mxGeometry x="461" y="45" width="316" height="160" as="geometry"/>
                </mxCell>
                <mxCell id="6" value="Data" style="text;html=1;align=center;verticalAlign=middle;resizable=0;points=[];autosize=1;strokeColor=none;fillColor=none;" vertex="1" parent="1">
                    <mxGeometry x="735" y="15" width="50" height="30" as="geometry"/>
                </mxCell>
                <mxCell id="32" style="edgeStyle=none;html=1;exitX=0;exitY=0.5;exitDx=0;exitDy=0;strokeColor=#99FF99;" edge="1" parent="1" source="7" target="24">
                    <mxGeometry relative="1" as="geometry"/>
                </mxCell>
                <mxCell id="7" value="ListCharactersController" style="rounded=0;whiteSpace=wrap;html=1;fillColor=none;strokeColor=#99FF99;" vertex="1" parent="1">
                    <mxGeometry x="625" y="95" width="140" height="60" as="geometry"/>
                </mxCell>
                <mxCell id="8" style="edgeStyle=orthogonalEdgeStyle;html=1;entryX=0.5;entryY=0;entryDx=0;entryDy=0;strokeColor=#99FF99;" edge="1" parent="1" source="7" target="4">
                    <mxGeometry relative="1" as="geometry"/>
                </mxCell>
                <mxCell id="9" style="edgeStyle=orthogonalEdgeStyle;html=1;entryX=1;entryY=0.5;entryDx=0;entryDy=0;strokeColor=#FF9999;" edge="1" parent="1" source="10" target="2">
                    <mxGeometry relative="1" as="geometry">
                        <Array as="points">
                            <mxPoint x="825" y="125"/>
                            <mxPoint x="825" y="360"/>
                        </Array>
                    </mxGeometry>
                </mxCell>
                <mxCell id="10" value="" style="rounded=0;whiteSpace=wrap;html=1;fillColor=none;strokeColor=#FF9999;" vertex="1" parent="1">
                    <mxGeometry x="875" y="45" width="316" height="160" as="geometry"/>
                </mxCell>
                <mxCell id="11" value="Main" style="text;html=1;align=center;verticalAlign=middle;resizable=0;points=[];autosize=1;strokeColor=none;fillColor=none;" vertex="1" parent="1">
                    <mxGeometry x="1141" y="15" width="50" height="30" as="geometry"/>
                </mxCell>
                <mxCell id="12" style="edgeStyle=none;html=1;strokeColor=#FF9999;" edge="1" parent="1" target="5">
                    <mxGeometry relative="1" as="geometry">
                        <mxPoint x="875" y="125" as="sourcePoint"/>
                    </mxGeometry>
                </mxCell>
                <mxCell id="13" value="MakeListCharactersController" style="rounded=0;whiteSpace=wrap;html=1;fillColor=none;strokeColor=#FF9999;" vertex="1" parent="1">
                    <mxGeometry x="936.5" y="95" width="193" height="60" as="geometry"/>
                </mxCell>
                <mxCell id="14" value="" style="rounded=0;whiteSpace=wrap;html=1;fillColor=none;strokeColor=#CC99FF;" vertex="1" parent="1">
                    <mxGeometry x="875" y="280" width="316" height="160" as="geometry"/>
                </mxCell>
                <mxCell id="15" value="React Component" style="text;html=1;align=center;verticalAlign=middle;resizable=0;points=[];autosize=1;strokeColor=none;fillColor=none;fontStyle=1" vertex="1" parent="1">
                    <mxGeometry x="1066" y="250" width="130" height="30" as="geometry"/>
                </mxCell>
                <mxCell id="16" style="edgeStyle=orthogonalEdgeStyle;html=1;entryX=0.5;entryY=1;entryDx=0;entryDy=0;strokeColor=#CC99FF;" edge="1" parent="1" source="17" target="13">
                    <mxGeometry relative="1" as="geometry"/>
                </mxCell>
                <mxCell id="17" value="call the factory" style="rounded=0;whiteSpace=wrap;html=1;fillColor=none;strokeColor=#CC99FF;" vertex="1" parent="1">
                    <mxGeometry x="962" y="330" width="142" height="60" as="geometry"/>
                </mxCell>
                <mxCell id="18" value="" style="rounded=0;whiteSpace=wrap;html=1;fillColor=none;strokeColor=#FA6800;fontColor=#000000;" vertex="1" parent="1">
                    <mxGeometry x="461" y="-190" width="316" height="160" as="geometry"/>
                </mxCell>
                <mxCell id="19" value="Infra" style="text;html=1;align=center;verticalAlign=middle;resizable=0;points=[];autosize=1;strokeColor=none;fillColor=none;" vertex="1" parent="1">
                    <mxGeometry x="726" y="-220" width="50" height="30" as="geometry"/>
                </mxCell>
                <mxCell id="21" style="edgeStyle=orthogonalEdgeStyle;html=1;exitX=0.5;exitY=1;exitDx=0;exitDy=0;entryX=0.5;entryY=0;entryDx=0;entryDy=0;strokeColor=#FA6800;" edge="1" parent="1" source="22" target="24">
                    <mxGeometry relative="1" as="geometry">
                        <mxPoint x="540" y="60" as="targetPoint"/>
                    </mxGeometry>
                </mxCell>
                <mxCell id="31" style="edgeStyle=none;html=1;exitX=0;exitY=0.5;exitDx=0;exitDy=0;strokeColor=#FA6800;" edge="1" parent="1" source="22" target="29">
                    <mxGeometry relative="1" as="geometry"/>
                </mxCell>
                <mxCell id="22" value="FetchHttpClient" style="rounded=0;whiteSpace=wrap;html=1;fillColor=none;strokeColor=#FA6800;" vertex="1" parent="1">
                    <mxGeometry x="563" y="-140" width="120" height="60" as="geometry"/>
                </mxCell>
                <mxCell id="24" value="HttpClient" style="rounded=1;whiteSpace=wrap;html=1;fillColor=none;strokeColor=#99FF99;dashed=1;" vertex="1" parent="1">
                    <mxGeometry x="475" y="95" width="110" height="60" as="geometry"/>
                </mxCell>
                <mxCell id="27" value="Concrete Class" style="rounded=0;whiteSpace=wrap;html=1;fillColor=none;strokeColor=#99FF99;" vertex="1" parent="1">
                    <mxGeometry x="962" y="-95" width="143" height="60" as="geometry"/>
                </mxCell>
                <mxCell id="28" value="Interfaces" style="rounded=1;whiteSpace=wrap;html=1;dashed=1;fillColor=none;strokeColor=#99FF99;" vertex="1" parent="1">
                    <mxGeometry x="962" y="-185" width="140" height="60" as="geometry"/>
                </mxCell>
                <mxCell id="29" value="fetch" style="whiteSpace=wrap;html=1;strokeColor=#314354;fillColor=#647687;fontColor=#ffffff;" vertex="1" parent="1">
                    <mxGeometry x="300" y="-140" width="120" height="60" as="geometry"/>
                </mxCell>
                <mxCell id="35" style="edgeStyle=orthogonalEdgeStyle;html=1;strokeColor=#FF9999;exitX=0;exitY=0.5;exitDx=0;exitDy=0;entryX=1.003;entryY=0.372;entryDx=0;entryDy=0;entryPerimeter=0;" edge="1" parent="1" source="10" target="18">
                    <mxGeometry relative="1" as="geometry">
                        <mxPoint x="885" y="135" as="sourcePoint"/>
                        <mxPoint x="787" y="135" as="targetPoint"/>
                        <Array as="points">
                            <mxPoint x="826" y="125"/>
                            <mxPoint x="826" y="-130"/>
                        </Array>
                    </mxGeometry>
                </mxCell>
            </root>
        </mxGraphModel>
    </diagram>
</mxfile>